<svg xmlns="http://www.w3.org/2000/svg" width="110" height="21" viewBox="0 0 110 21" fill="none"><path fill-rule="evenodd" clip-rule="evenodd" d="M5.98977 15.4727L15.239 15.4727C18.1882 15.4727 20.6402 13.2861 21.1328 10.4213H17.7187C17.3126 11.4096 16.3543 12.1059 15.239 12.1059L5.98977 12.1059C4.50752 12.1059 3.3012 10.8774 3.3012 9.36621V6.80522C3.3012 5.29404 4.50752 4.06485 5.98977 4.06485L15.239 4.06485C15.2589 4.06485 15.2775 4.0704 15.2974 4.07073H20.5867C19.6006 2.07402 17.5767 0.698112 15.2387 0.698112L5.98945 0.698112C2.6865 0.698112 -0.000463486 3.43783 -0.000463486 6.80522V9.36621C-0.000143051 12.7329 2.68683 15.4727 5.98977 15.4727Z" fill="#34B7F1"></path><path fill-rule="evenodd" clip-rule="evenodd" d="M20.9831 5.92435L20.9828 5.92304H17.3158L17.3171 5.92435H13.6046C10.6452 5.92435 8.18704 8.12625 7.7063 11.0061H11.116C11.5153 10.0024 12.4787 9.29108 13.6049 9.29108H16.6617V9.28977L22.8086 9.28977V9.29108H22.8538C23.066 9.29108 23.2701 9.32245 23.4682 9.37015C24.654 9.65507 25.5421 10.7369 25.5421 12.0318V14.5928C25.5421 16.1039 24.3358 17.3325 22.8535 17.3325H13.6042C13.5853 17.3325 13.5677 17.3273 13.5488 17.3269L8.25626 17.3269C9.2424 19.3233 11.2663 20.6992 13.6042 20.6992L22.8538 20.6992C26.1568 20.6986 28.8438 17.9588 28.8438 14.5924V12.0315C28.8438 8.83658 26.4241 6.21155 23.3557 5.95016C23.1897 5.93611 23.0234 5.92435 22.8538 5.92435L20.9831 5.92435Z" fill="#34B7F1"></path><path d="M38.8202 0.890561H48.7388L40.6517 17.2941H48.2598V21H34.3398L42.5678 4.68263H39.1301C37.4676 4.68263 36.3968 4.59644 35.467 6.11901C33.41 3.01642 35.946 0.890561 38.8202 0.890561ZM52.1202 9.13543C52.2611 6.80848 53.7545 6.14774 55.7551 6.11901V21H52.1202V9.13543ZM53.9518 0C54.5998 0 55.1352 0.229822 55.5861 0.718194C56.0651 1.17784 56.2905 1.75239 56.2905 2.41313C56.2905 3.1026 56.0651 3.64843 55.6143 4.1368C54.5998 5.171 52.571 4.79754 52.092 6.09029C51.7539 4.88372 51.0494 1.95349 52.2892 0.689466C52.7401 0.229822 53.3037 0 53.9518 0ZM63.0814 17.3516H69.8442V21H59.3619V3.90698C59.3619 2.01094 60.8272 0.861833 63.0814 0.890561V17.3516ZM73.2255 9.13543C73.3664 6.80848 74.8598 6.14774 76.8605 6.11901V21H73.2255V9.13543ZM75.0571 0C75.7052 0 76.2406 0.229822 76.6914 0.718194C77.1704 1.17784 77.3959 1.75239 77.3959 2.41313C77.3959 3.1026 77.1704 3.64843 76.7196 4.1368C75.7052 5.171 73.6764 4.79754 73.1973 6.09029C72.8592 4.88372 72.1548 1.95349 73.3946 0.689466C73.8454 0.229822 74.409 0 75.0571 0ZM83.8486 7.84268C84.4686 6.49248 86.4692 5.83174 87.8217 5.74555C89.2588 5.65937 90.6959 6.11901 91.8512 7.29685C92.6965 8.18741 93.1192 9.48016 93.1192 11.1751V21H89.5124C89.5124 19.0752 89.6533 12.3817 89.287 11.0027C88.977 9.79617 88.0472 9.16416 87.0609 9.16416C85.7929 9.16416 85.0321 9.93981 85.0321 11.0889C84.5813 10.9453 84.0741 10.3995 83.8486 9.85362V10.6293V21H80.2137V6.11901H83.8486V7.84268ZM99.5156 12.4679L102.587 8.99179C103.827 7.58413 104.898 6.63611 106.588 6.5212C108.279 6.40629 109.716 7.2394 109.04 9.13543C108.758 8.61833 107.349 8.61833 106.109 10.0547L103.122 13.4159L109.998 21H105.546L99.5156 14.3064V21H95.937V3.82079C95.937 1.98222 97.3459 0.861833 99.5156 0.890561V12.4679Z" fill="#34B7F1"></path></svg>